<?xml version="1.0" encoding="UTF-8"?>
<svg id="Layer_1" xmlns="http://www.w3.org/2000/svg" version="1.1" viewBox="0 0 1695.36 1695.36">
  <!-- Generator: Adobe Illustrator 29.8.2, SVG Export Plug-In . SVG Version: 2.1.1 Build 3)  -->
  <defs>
    <style>
      .st0 {
        fill: #5d89e9;
      }

      .st1 {
        fill: #f9ff7b;
      }
    </style>
  </defs>
  <rect class="st0" width="1695.36" height="1695.36"/>
  <path class="st1" d="M847.68,233.42S91.07,608.34,188.94,1143.84c1.79,9.78,3.86,19.6,6.22,29.48,43.1,180.03,157.4,262.53,293.86,284.7,71.01,11.53,141.85-3.51,201.87-29.95,52.2-22.98,97.19-60.01,128.36-107.76.86-1.32,1.72-2.65,2.56-3.98,42.72-67.53,63.27-139.79,59.42-208.99-3.69-66.15-29.35-126.54-74.23-174.67l-76.4-78.09c-11.83-12.09-11.62-31.48.47-43.31,12.09-11.83,31.48-11.62,43.31.47l73.87,75.52c10.7-10.73,25.65-25.61,46.59-46.38,13.53-13.42,27.52-27.3,29.56-29.47,11.54-12.35,30.92-13,43.28-1.45,12.35,11.55,13,30.93,1.45,43.29-2.51,2.69-12.41,12.52-31.16,31.12-14.09,13.99-36.06,35.78-51.1,50.92,33.08,49.83,52.11,107.21,55.53,168.66,4.42,79.31-17.7,161.2-64.02,237.39,63.06,65.52,200.83,138.46,328,116.68,136.25-23.34,250.74-104.67,293.84-284.7C1632.17,622.15,847.68,233.42,847.68,233.42ZM1343.32,1293.58c-46.65,46.65-108.67,72.34-174.63,72.34-16.82,0-30.46-13.64-30.46-30.46s13.64-30.46,30.46-30.46c102.59,0,186.06-83.47,186.06-186.06,0-16.82,13.64-30.46,30.46-30.46s30.46,13.64,30.46,30.46c0,65.97-25.69,127.99-72.34,174.63Z"/>
</svg>